<svg width="151" height="32" viewBox="0 0 151 32" fill="none" xmlns="http://www.w3.org/2000/svg">
<g clip-path="url(#clip0_649_566)">
<path d="M67.6899 25.3351L60.9241 25.3816L59.3741 22.3746L60.9241 19.7706L67.7674 19.7241C67.8626 19.7253 67.9565 19.7025 68.0405 19.6578C68.1245 19.6131 68.1958 19.5479 68.2479 19.4683C68.3013 19.3896 68.3348 19.2992 68.3456 19.2047C68.3564 19.1102 68.3442 19.0146 68.3099 18.9258C67.589 17.1065 66.3233 15.5544 64.6863 14.482C63.0492 13.4096 61.1208 12.8693 59.1649 12.9351V14.0976C60.7317 14.0467 62.2812 14.4385 63.6356 15.2281C64.9899 16.0176 66.0943 17.173 66.8219 18.5616L60.5521 18.6081C60.4506 18.6084 60.3508 18.635 60.2625 18.6852C60.1743 18.7355 60.1005 18.8077 60.0484 18.8948L58.2039 22.0646C58.1564 22.1499 58.1314 22.246 58.1314 22.3436C58.1314 22.4413 58.1564 22.5373 58.2039 22.6226L60.0484 26.2342C60.0978 26.3294 60.1723 26.4093 60.2638 26.4653C60.3553 26.5213 60.4603 26.5512 60.5676 26.5519L66.7677 26.5132C66.2021 27.5354 65.4292 28.4282 64.4984 29.1343C63.5677 29.8404 62.4997 30.3442 61.3628 30.6134C60.226 30.8827 59.0455 30.9114 57.8969 30.6978C56.7483 30.4842 55.6571 30.0329 54.6931 29.3729C53.2211 28.3596 52.1128 26.9009 51.5311 25.2111C51.4899 25.0981 51.4151 25.0003 51.3167 24.9311C51.2184 24.8618 51.1011 24.8243 50.9808 24.8236H3.50394C2.8873 24.8236 2.29592 24.5787 1.8599 24.1427C1.42387 23.7066 1.17892 23.1153 1.17892 22.4986C1.17892 21.882 1.42387 21.2906 1.8599 20.8546C2.29592 20.4186 2.8873 20.1736 3.50394 20.1736H50.9653C51.0873 20.1718 51.206 20.133 51.3056 20.0625C51.4052 19.9919 51.4811 19.8929 51.5233 19.7784C51.9005 18.6485 52.5194 17.6145 53.3368 16.7481V15.1516C52.0916 16.1825 51.1334 17.5172 50.5546 19.0266H3.50394C2.63572 19.1085 1.82929 19.5114 1.24233 20.1564C0.655364 20.8013 0.330078 21.6421 0.330078 22.5141C0.330078 23.3862 0.655364 24.2269 1.24233 24.8719C1.82929 25.5169 2.63572 25.9197 3.50394 26.0017H50.5778C51.2786 27.7639 52.4887 29.2772 54.0535 30.3485C55.6184 31.4198 57.467 32.0004 59.3634 32.0162C61.2597 32.032 63.1178 31.4823 64.7003 30.4372C66.2828 29.3922 67.5179 27.8992 68.2479 26.1489C68.2788 26.0617 68.2884 25.9683 68.2759 25.8767C68.2634 25.785 68.2292 25.6976 68.1761 25.6218C68.1231 25.546 68.0527 25.484 67.9708 25.4408C67.8889 25.3977 67.798 25.3748 67.7054 25.3739L67.6899 25.3351Z" fill="white"/>
<path d="M10.8348 10.4157V13.0585C10.8709 13.5902 10.7834 14.123 10.579 14.6151C10.3746 15.1073 10.0589 15.5453 9.65679 15.895C8.91518 16.5199 8.03175 16.9537 7.08377 17.1583C6.80534 17.2205 6.52316 17.2645 6.23901 17.29C5.98157 17.3171 5.72285 17.33 5.464 17.3288C3.61949 17.3288 2.26323 16.918 1.37972 16.0965C0.496217 15.275 0.0622103 13.911 0.0622103 12.02V4.68842C0.0303846 3.46992 0.456205 2.28371 1.25572 1.36364C2.05656 0.459467 3.45932 0.00479466 5.464 -0.00037205C6.85514 -0.0650293 8.22534 0.356994 9.33903 1.19314C9.85071 1.6491 10.2499 2.21731 10.5054 2.85327C10.7608 3.48923 10.8656 4.1757 10.8115 4.85892V6.29267H6.63426V4.16916C6.64099 4.02091 6.61213 3.87319 6.55011 3.73837C6.48809 3.60354 6.39471 3.48552 6.27776 3.39415C6.05698 3.21063 5.78783 3.09489 5.50276 3.0609H5.2625C4.95066 3.08888 4.65534 3.21351 4.41775 3.4174C4.29006 3.53266 4.19075 3.67588 4.12757 3.83586C4.06438 3.99584 4.03903 4.16827 4.05349 4.33967V13.0585C4.04507 13.2293 4.0732 13.3999 4.13602 13.5589C4.19883 13.718 4.29489 13.8618 4.41775 13.9807C4.643 14.2117 4.94172 14.357 5.2625 14.3915H5.47951C5.49179 14.3966 5.50495 14.3992 5.51825 14.3992C5.53155 14.3992 5.54473 14.3966 5.55701 14.3915C5.90222 14.3492 6.21962 14.1808 6.44826 13.9187C6.72682 13.589 6.86583 13.1636 6.83577 12.733V10.408L10.8348 10.4157Z" fill="white"/>
<path d="M13.4766 0.565906H19.2271C20.4065 0.508162 21.5714 0.846436 22.5364 1.52692C22.986 1.91901 23.343 2.40604 23.5816 2.95286C23.8202 3.49967 23.9343 4.09264 23.9159 4.68894C23.9474 5.58661 23.7834 6.4804 23.4354 7.30846C23.1021 8.01337 22.5155 8.56681 21.7924 8.85847C22.3292 8.98876 22.8231 9.25575 23.2261 9.63347C23.3979 9.8045 23.5326 10.009 23.622 10.2344C23.7113 10.4597 23.7533 10.701 23.7454 10.9432L23.9159 14.9423C23.8767 15.3658 23.9544 15.7921 24.1406 16.1745C24.1857 16.2641 24.2527 16.341 24.3353 16.3979C24.4179 16.4547 24.5136 16.4899 24.6134 16.5V17.0193H21.1026C20.7559 17.0677 20.4038 16.9818 20.1184 16.779C19.9227 16.4306 19.8439 16.0286 19.8936 15.632V12.1988C19.9248 11.7717 19.813 11.3463 19.5759 10.9897C19.4129 10.8411 19.22 10.7289 19.0102 10.6607C18.8003 10.5926 18.5784 10.57 18.3591 10.5945H17.4523V17.0193H13.4766V0.565906ZM18.3591 7.67271C18.5567 7.6683 18.7515 7.62496 18.9324 7.54517C19.1133 7.46538 19.2766 7.35071 19.4131 7.20771C19.5931 6.99483 19.7284 6.74787 19.811 6.48157C19.8935 6.21527 19.9216 5.93509 19.8936 5.6577V5.19269C19.7309 4.23944 19.4364 3.64269 19.0179 3.52643C18.5184 3.36015 17.9941 3.28149 17.4678 3.29393V7.65722L18.3591 7.67271Z" fill="white"/>
<path d="M29.7137 0.56543H34.232L37.9055 17.0111H33.8832L33.3639 13.7483H30.4034L29.8842 17.0111H25.9316L29.7137 0.56543ZM32.8137 10.7645L31.8062 3.47945L30.7134 10.7645H32.8137Z" fill="white"/>
<path d="M40.1367 0.56543H49.2973V3.66545H44.0893V6.65698H48.7393V9.912H44.0893V17.0266H40.1367V0.56543Z" fill="white"/>
<path d="M54.2426 3.82045H51.1426V0.56543H61.1789V3.82045H58.2649V16.9956H54.2426V3.82045Z" fill="white"/>
<path d="M74.0122 10.416V13.0588C74.0493 13.5898 73.963 14.1222 73.76 14.6143C73.5569 15.1064 73.2427 15.5449 72.842 15.8953C72.0966 16.519 71.211 16.9525 70.2612 17.1585C69.9855 17.2213 69.7059 17.2653 69.4242 17.2903C69.1668 17.3173 68.9081 17.3303 68.6492 17.329C66.8047 17.329 65.4433 16.9183 64.5649 16.0968C63.6814 15.2753 63.2397 13.9113 63.2397 12.0203V4.6887C63.2107 3.4693 63.6393 2.28323 64.4409 1.36393C65.2366 0.459753 66.6394 0.00508121 68.6492 -8.54996e-05C70.0531 -0.0712549 71.4377 0.350971 72.563 1.19342C73.0718 1.65125 73.4686 2.21997 73.7226 2.8556C73.9766 3.49124 74.081 4.17678 74.0277 4.85921V6.29296H69.835V4.16945C69.8398 4.02146 69.8101 3.87436 69.7482 3.73984C69.6864 3.60531 69.594 3.48706 69.4785 3.39444C69.2559 3.21384 68.9876 3.09848 68.7035 3.06119H68.4555C68.1463 3.09073 67.8539 3.21527 67.6184 3.41769C67.4898 3.53256 67.3894 3.67551 67.3249 3.83543C67.2604 3.99536 67.2335 4.16799 67.2464 4.33995V13.0588C67.2395 13.2301 67.2691 13.4009 67.3332 13.5599C67.3974 13.7189 67.4946 13.8625 67.6184 13.981C67.8417 14.2104 68.1374 14.3555 68.4555 14.3918H68.6802C68.7026 14.4008 68.7276 14.4008 68.7499 14.3918C69.0956 14.3509 69.4135 14.1823 69.6412 13.919C69.9226 13.5904 70.0644 13.1649 70.0365 12.7333V10.4082L74.0122 10.416Z" fill="#F47C20"/>
<path d="M76.655 4.68935C76.655 3.04634 77.182 1.87607 78.2051 1.19407C79.3539 0.486337 80.6849 0.130686 82.0336 0.171062H82.6381L83.2426 0.225312C84.2904 0.369503 85.2819 0.786419 86.1179 1.43432C86.5771 1.82999 86.9349 2.32984 87.1614 2.89207C87.3879 3.45431 87.4765 4.0626 87.4199 4.6661V11.9976C87.4956 13.4081 87.0299 14.7941 86.1179 15.8727C85.2576 16.8337 83.8393 17.3064 81.8631 17.3064C79.8868 17.3064 78.5383 16.7717 77.7633 15.7099C77.0165 14.6263 76.6264 13.3367 76.6473 12.0209L76.655 4.68935ZM80.6308 12.8967C80.6185 13.0926 80.6512 13.2888 80.7265 13.4701C80.8017 13.6515 80.9174 13.8132 81.0648 13.9429C81.3287 14.1737 81.6676 14.3004 82.0181 14.2994H82.0878C82.4251 14.2784 82.7462 14.1478 83.0023 13.9274C83.1471 13.7997 83.2602 13.6401 83.3328 13.4613C83.4054 13.2824 83.4356 13.0891 83.4208 12.8967V4.52659C83.435 4.33303 83.4046 4.13879 83.3321 3.95877C83.2596 3.77876 83.1467 3.61775 83.0023 3.48809C82.7462 3.26772 82.4251 3.13709 82.0878 3.11608H82.0181C81.6692 3.11635 81.3315 3.23987 81.0648 3.46484C80.9143 3.59541 80.7966 3.75954 80.7212 3.94398C80.6458 4.12841 80.6149 4.32798 80.6308 4.52659V12.8967Z" fill="#F47C20"/>
<path d="M89.916 0.56543H93.8918L97.0306 10.067L96.5113 0.56543H100.386V17.0111H96.3641L93.264 7.85049L93.7833 17.0111H89.978L89.916 0.56543Z" fill="#F47C20"/>
<path d="M103.176 0.56543H107.152L110.252 10.067L109.74 0.56543H113.615V17.0111H109.593L106.493 7.85049L107.004 17.0111H103.207L103.176 0.56543Z" fill="#F47C20"/>
<path d="M116.414 0.56543H125.567V3.66545H120.39V6.82748H125.257V10.2608H120.39V13.7638H125.598V17.0266H116.414V0.56543Z" fill="#F47C20"/>
<path d="M138.756 10.4163V13.059C138.792 13.5907 138.705 14.1235 138.501 14.6157C138.296 15.1078 137.98 15.5459 137.578 15.8956C136.833 16.5192 135.947 16.9527 134.998 17.1588C134.722 17.2216 134.442 17.2656 134.161 17.2906C133.903 17.3176 133.644 17.3306 133.386 17.3293C131.541 17.3293 130.185 16.9186 129.301 16.0971C128.418 15.2756 127.976 13.9115 127.976 12.0205V4.68897C127.947 3.46957 128.376 2.2835 129.177 1.36419C129.978 0.46002 131.381 0.00534762 133.386 0.000180914C134.79 -0.0723093 136.175 0.350051 137.299 1.19369C137.81 1.65077 138.208 2.21915 138.463 2.85483C138.718 3.49051 138.824 4.17642 138.772 4.85947V6.29323H134.571V4.16972C134.578 4.02146 134.549 3.87375 134.487 3.73892C134.425 3.60409 134.332 3.48607 134.215 3.39471C133.994 3.21118 133.725 3.09545 133.44 3.06145H133.192C132.883 3.091 132.59 3.21553 132.355 3.41795C132.226 3.53283 132.126 3.67577 132.061 3.8357C131.997 3.99563 131.97 4.16826 131.983 4.34022V13.059C131.976 13.2304 132.005 13.4012 132.07 13.5602C132.134 13.7192 132.231 13.8627 132.355 13.9813C132.578 14.2107 132.874 14.3558 133.192 14.392H133.417C133.442 14.4009 133.469 14.4009 133.494 14.392C133.837 14.3493 134.152 14.1809 134.378 13.9193C134.659 13.5907 134.801 13.1652 134.773 12.7335V10.4085L138.756 10.4163Z" fill="#F47C20"/>
<path d="M143.942 3.82045H140.842V0.56543H150.863V3.82045H147.949V16.9956H143.926L143.942 3.82045Z" fill="#F47C20"/>
<path d="M4.06073 20.9873H50.8401V24.1416H4.06073C3.64964 24.1416 3.25539 23.9783 2.9647 23.6876C2.67402 23.3969 2.51072 23.0027 2.51072 22.5916C2.50343 22.3835 2.53813 22.1761 2.61276 21.9817C2.68739 21.7874 2.8004 21.61 2.94507 21.4603C3.08973 21.3106 3.26308 21.1915 3.45476 21.1103C3.64644 21.029 3.85253 20.9872 4.06073 20.9873Z" fill="#F47C20"/>
</g>
<defs>
<clipPath id="clip0_649_566">
<rect width="150.878" height="32" fill="white"/>
</clipPath>
</defs>
</svg>
