<svg width="1440" height="123" viewBox="0 0 1440 123" fill="none" xmlns="http://www.w3.org/2000/svg">
<g opacity="0.04" clip-path="url(#clip0_620_954)">
<path d="M646.033 235.139L581.46 235.571L566.666 207.662L581.46 183.493L646.773 183.062C647.681 183.073 648.577 182.861 649.379 182.446C650.181 182.032 650.862 181.427 651.359 180.688C651.868 179.957 652.188 179.118 652.291 178.241C652.394 177.364 652.277 176.476 651.951 175.653C645.07 158.767 632.99 144.361 617.366 134.408C601.742 124.455 583.337 119.44 564.669 120.051V130.84C579.624 130.368 594.412 134.004 607.338 141.333C620.264 148.661 630.804 159.384 637.749 172.272L577.909 172.704C576.94 172.707 575.988 172.953 575.145 173.419C574.303 173.886 573.599 174.556 573.101 175.365L555.497 204.785C555.044 205.576 554.806 206.468 554.806 207.374C554.806 208.28 555.044 209.172 555.497 209.964L573.101 243.483C573.573 244.367 574.284 245.109 575.157 245.629C576.031 246.148 577.033 246.426 578.057 246.432L637.231 246.073C631.833 255.56 624.456 263.846 615.573 270.4C606.69 276.953 596.497 281.629 585.647 284.128C574.797 286.627 563.53 286.894 552.568 284.911C541.605 282.929 531.19 278.74 521.99 272.615C507.941 263.209 497.363 249.671 491.811 233.988C491.418 232.939 490.704 232.032 489.765 231.389C488.827 230.746 487.708 230.398 486.559 230.392H33.4343C27.549 230.392 21.9049 228.118 17.7434 224.071C13.5819 220.025 11.244 214.536 11.244 208.813C11.244 203.09 13.5819 197.601 17.7434 193.554C21.9049 189.507 27.549 187.234 33.4343 187.234H486.411C487.576 187.216 488.708 186.857 489.659 186.202C490.61 185.547 491.334 184.628 491.737 183.565C495.337 173.079 501.244 163.481 509.046 155.44V140.623C497.161 150.191 488.016 162.579 482.491 176.588H33.4343C25.1479 177.349 17.4512 181.087 11.8492 187.074C6.24715 193.06 3.14258 200.863 3.14258 208.957C3.14258 217.05 6.24715 224.853 11.8492 230.84C17.4512 236.826 25.1479 240.565 33.4343 241.325H482.713C489.401 257.681 500.951 271.726 515.886 281.669C530.821 291.612 548.464 297.001 566.564 297.148C584.663 297.295 602.396 292.193 617.5 282.493C632.603 272.793 644.391 258.937 651.359 242.692C651.654 241.882 651.745 241.016 651.626 240.165C651.506 239.314 651.18 238.503 650.674 237.8C650.167 237.096 649.495 236.52 648.714 236.12C647.933 235.72 647.064 235.507 646.181 235.499L646.033 235.139Z" fill="#193A5F"/>
<path d="M103.407 96.6747V121.203C103.752 126.138 102.916 131.083 100.965 135.65C99.0148 140.218 96.0021 144.284 92.1639 147.529C85.0858 153.329 76.6543 157.355 67.6067 159.254C64.9493 159.831 62.2561 160.24 59.5442 160.477C57.0872 160.728 54.6179 160.848 52.1474 160.836C34.5432 160.836 21.5989 157.024 13.1666 149.4C4.73426 141.775 0.592048 129.115 0.592048 111.564V43.5182C0.2883 32.2091 4.35238 21.1995 11.9831 12.6602C19.6264 4.2683 33.0145 0.0483761 52.1474 0.000422642C65.4246 -0.599677 78.502 3.31723 89.1312 11.0777C94.0147 15.3096 97.8246 20.5832 100.263 26.4858C102.701 32.3883 103.701 38.7596 103.185 45.1007V58.4077H63.3165V38.6989C63.3807 37.3229 63.1053 35.952 62.5134 34.7006C61.9215 33.4492 61.0302 32.3538 59.914 31.5058C57.8069 29.8025 55.2381 28.7284 52.5173 28.4128H50.2243C47.2481 28.6725 44.4295 29.8293 42.1618 31.7216C40.9432 32.7914 39.9954 34.1206 39.3923 35.6054C38.7893 37.0903 38.5473 38.6906 38.6853 40.2814V121.203C38.6049 122.788 38.8734 124.372 39.473 125.848C40.0725 127.324 40.9892 128.659 42.1618 129.763C44.3117 131.906 47.1627 133.254 50.2243 133.575H52.2954C52.4126 133.622 52.5382 133.647 52.6652 133.647C52.7922 133.647 52.9179 133.622 53.0351 133.575C56.3298 133.182 59.3592 131.62 61.5413 129.187C64.1999 126.127 65.5267 122.178 65.2397 118.182V96.6027L103.407 96.6747Z" fill="#193A5F"/>
<path d="M128.627 5.25046H183.511C194.767 4.71452 205.885 7.85412 215.095 14.1698C219.387 17.8089 222.794 22.3292 225.071 27.4043C227.347 32.4795 228.437 37.9829 228.261 43.5174C228.562 51.8489 226.997 60.1443 223.675 67.8297C220.495 74.3722 214.896 79.5088 207.994 82.2158C213.117 83.4251 217.831 85.9031 221.678 89.4088C223.317 90.9962 224.603 92.8946 225.456 94.9859C226.308 97.0772 226.709 99.3166 226.634 101.565L228.261 138.681C227.887 142.612 228.629 146.568 230.406 150.118C230.837 150.95 231.476 151.663 232.264 152.191C233.053 152.719 233.966 153.045 234.918 153.139V157.958H201.411C198.102 158.408 194.741 157.61 192.017 155.729C190.149 152.494 189.398 148.763 189.872 145.083V113.218C190.17 109.254 189.103 105.306 186.839 101.997C185.284 100.617 183.443 99.5756 181.44 98.9429C179.438 98.3103 177.319 98.1007 175.227 98.3282H166.572V157.958H128.627V5.25046ZM175.227 71.2105C177.113 71.1695 178.972 70.7673 180.698 70.0267C182.424 69.2862 183.983 68.2219 185.286 66.8947C187.004 64.9189 188.296 62.6268 189.084 60.1552C189.872 57.6836 190.14 55.0832 189.872 52.5087V48.1928C188.319 39.3454 185.508 33.8068 181.514 32.7279C176.747 31.1845 171.742 30.4544 166.72 30.5699V71.0667L175.227 71.2105Z" fill="#193A5F"/>
<path d="M283.588 5.25H326.711L361.772 157.886H323.383L318.427 127.603H290.171L285.216 157.886H247.492L283.588 5.25ZM313.175 99.9102L303.56 32.2958L293.13 99.9102H313.175Z" fill="#193A5F"/>
<path d="M383.066 5.25H470.496V34.0221H420.79V61.7872H465.17V91.9979H420.79V158.03H383.066V5.25Z" fill="#193A5F"/>
<path d="M517.702 35.4607H488.115V5.25H583.903V35.4607H556.091V157.742H517.702V35.4607Z" fill="#193A5F"/>
<path d="M706.385 96.6737V121.202C706.739 126.131 705.915 131.072 703.977 135.64C702.039 140.207 699.04 144.276 695.216 147.528C688.102 153.317 679.649 157.34 670.584 159.253C667.953 159.836 665.284 160.244 662.596 160.476C660.139 160.727 657.67 160.847 655.199 160.835C637.595 160.835 624.601 157.023 616.218 149.399C607.786 141.774 603.57 129.114 603.57 111.563V43.5173C603.294 32.1997 607.384 21.1915 615.035 12.6592C622.629 4.26733 636.017 0.0474041 655.199 -0.000549406C668.598 -0.661091 681.813 3.2577 692.553 11.0767C697.409 15.3259 701.196 20.6043 703.62 26.5038C706.044 32.4033 707.041 38.7659 706.533 45.0997V58.4068H666.516V38.698C666.563 37.3244 666.279 35.9591 665.688 34.7106C665.098 33.4621 664.216 32.3645 663.114 31.5049C660.99 29.8287 658.429 28.758 655.717 28.4119H653.35C650.4 28.6861 647.609 29.842 645.361 31.7207C644.134 32.7869 643.175 34.1136 642.56 35.5979C641.944 37.0822 641.688 38.6844 641.811 40.2804V121.202C641.745 122.792 642.027 124.377 642.639 125.853C643.251 127.329 644.179 128.661 645.361 129.762C647.492 131.891 650.315 133.237 653.35 133.574H655.495C655.709 133.658 655.947 133.658 656.161 133.574C659.46 133.194 662.494 131.63 664.667 129.186C667.352 126.137 668.706 122.187 668.439 118.181V96.6017L706.385 96.6737Z" fill="#193A5F"/>
<path d="M731.597 43.5178C731.597 28.2685 736.627 17.4071 746.391 11.0772C757.355 4.50856 770.058 1.20768 782.931 1.58242H788.7L794.47 2.08593C804.47 3.4242 813.933 7.2937 821.912 13.307C826.294 16.9794 829.709 21.6186 831.871 26.8368C834.033 32.0551 834.879 37.7008 834.338 43.302V111.348C835.061 124.438 830.616 137.303 821.912 147.313C813.701 156.232 800.165 160.62 781.303 160.62C762.442 160.62 749.571 155.657 742.175 145.803C735.047 135.745 731.324 123.776 731.523 111.564L731.597 43.5178ZM769.543 119.692C769.425 121.51 769.738 123.331 770.456 125.014C771.173 126.697 772.278 128.199 773.685 129.402C776.203 131.544 779.437 132.721 782.783 132.711H783.448C786.667 132.516 789.732 131.304 792.177 129.259C793.558 128.073 794.638 126.592 795.331 124.932C796.024 123.272 796.311 121.478 796.171 119.692V42.0072C796.306 40.2106 796.016 38.4079 795.324 36.7371C794.632 35.0663 793.555 33.572 792.177 32.3685C789.732 30.3233 786.667 29.1109 783.448 28.9159H782.783C779.453 28.9184 776.23 30.0648 773.685 32.1528C772.248 33.3647 771.125 34.888 770.406 36.5998C769.686 38.3116 769.39 40.1638 769.543 42.0072V119.692Z" fill="#193A5F"/>
<path d="M858.166 5.25H896.111L926.068 93.4365L921.112 5.25H958.096V157.886H919.707L890.12 72.8645L895.076 157.886H858.758L858.166 5.25Z" fill="#193A5F"/>
<path d="M984.725 5.25H1022.67L1052.26 93.4365L1047.38 5.25H1084.36V157.886H1045.97L1016.38 72.8645L1021.26 157.886H985.021L984.725 5.25Z" fill="#193A5F"/>
<path d="M1111.07 5.24976H1198.42V34.0219H1149.01V63.3694H1195.46V95.2346H1149.01V127.747H1198.72V158.03H1111.07V5.24976Z" fill="#193A5F"/>
<path d="M1324.3 96.6733V121.201C1324.65 126.136 1323.81 131.081 1321.86 135.649C1319.91 140.217 1316.9 144.283 1313.06 147.528C1305.95 153.316 1297.5 157.34 1288.43 159.253C1285.8 159.835 1283.13 160.244 1280.44 160.475C1277.98 160.726 1275.52 160.847 1273.04 160.835C1255.44 160.835 1242.5 157.023 1234.06 149.398C1225.63 141.774 1221.42 129.114 1221.42 111.563V43.5168C1221.14 32.1992 1225.23 21.191 1232.88 12.6587C1240.52 4.26687 1253.91 0.0469471 1273.04 -0.00100644C1286.45 -0.673806 1299.66 3.24623 1310.4 11.0763C1315.27 15.3185 1319.07 20.5938 1321.51 26.4937C1323.94 32.3936 1324.95 38.7598 1324.45 45.0993V58.4063H1284.36V38.6975C1284.43 37.3215 1284.15 35.9505 1283.56 34.6992C1282.97 33.4478 1282.08 32.3524 1280.96 31.5044C1278.85 29.8011 1276.28 28.7269 1273.56 28.4114H1271.2C1268.25 28.6856 1265.45 29.8415 1263.21 31.7202C1261.98 32.7864 1261.02 34.1131 1260.41 35.5974C1259.79 37.0817 1259.53 38.6839 1259.66 40.28V121.201C1259.59 122.792 1259.87 124.377 1260.49 125.853C1261.1 127.329 1262.03 128.661 1263.21 129.761C1265.34 131.89 1268.16 133.237 1271.2 133.573H1273.34C1273.58 133.656 1273.84 133.656 1274.08 133.573C1277.35 133.177 1280.36 131.613 1282.51 129.186C1285.2 126.136 1286.55 122.187 1286.29 118.18V96.6013L1324.3 96.6733Z" fill="#193A5F"/>
<path d="M1373.8 35.4604H1344.21V5.24976H1439.85V35.4604H1412.04V157.742H1373.65L1373.8 35.4604Z" fill="#193A5F"/>
</g>
<defs>
<clipPath id="clip0_620_954">
<rect width="1440" height="297" fill="white"/>
</clipPath>
</defs>
</svg>
