<svg width="20" height="20" viewBox="0 0 20 20" fill="none" xmlns="http://www.w3.org/2000/svg">
<path d="M19.125 0H0.875C0.64758 0.0141805 0.433165 0.11092 0.272043 0.272043C0.11092 0.433165 0.0141805 0.64758 0 0.875V19.125C0 19.3571 0.0921878 19.5796 0.256282 19.7437C0.420376 19.9078 0.642935 20 0.875 20H10.6137V12.5212H8.0875V9.39625H10.6087V6.875C10.5638 6.3537 10.6348 5.82892 10.8168 5.33835C10.9988 4.84778 11.2872 4.40362 11.6613 4.03779C12.0354 3.67195 12.4858 3.39352 12.9803 3.22251C13.4748 3.05151 14.0011 2.99216 14.5213 3.04875C15.6525 3.04875 16.5212 3.13625 16.87 3.13625V5.83125H15.3038C14.0875 5.83125 13.7387 6.44 13.7387 7.30875V9.39625H16.8637L16.255 12.5212H13.7375L13.825 20H19.125C19.3571 20 19.5796 19.9078 19.7437 19.7437C19.9078 19.5796 20 19.3571 20 19.125V0.875C19.971 0.653092 19.8695 0.446983 19.7113 0.288738C19.553 0.130493 19.3469 0.0289832 19.125 0Z" fill="#4E6784"/>
</svg>
