<svg width="20" height="20" viewBox="0 0 20 20" fill="none" xmlns="http://www.w3.org/2000/svg">
<path d="M14.7373 0C17.6437 0.000249427 19.9998 2.3563 20 5.2627V14.7373C19.9998 17.6437 17.6437 19.9998 14.7373 20H5.2627C2.3563 19.9998 0.000249428 17.6437 0 14.7373V5.2627C0.000249942 2.3563 2.3563 0.000249943 5.2627 0H14.7373ZM10.001 5.26367C7.38489 5.26367 5.26367 7.38489 5.26367 10.001C5.26392 12.6168 7.38505 14.7373 10.001 14.7373C12.6167 14.7371 14.7371 12.6167 14.7373 10.001C14.7373 7.38505 12.6168 5.26392 10.001 5.26367ZM16.3154 2.10352C15.4434 2.10352 14.7363 2.81059 14.7363 3.68262C14.7365 4.55446 15.4435 5.26074 16.3154 5.26074C17.1873 5.26066 17.8943 4.55441 17.8945 3.68262C17.8945 2.81064 17.1874 2.1036 16.3154 2.10352Z" fill="#4E6784"/>
</svg>
