<svg width="16" height="16" viewBox="0 0 16 16" fill="none" xmlns="http://www.w3.org/2000/svg">
<path fill-rule="evenodd" clip-rule="evenodd" d="M15.1478 9.56575V14.8499H12.1221V9.91717C12.1221 8.67691 11.6863 7.83436 10.5967 7.83436C10.2569 7.83513 9.92563 7.94315 9.64811 8.14365C9.37059 8.34415 9.16036 8.62736 9.04612 8.95462C8.96352 9.19437 8.92653 9.44807 8.93716 9.70203V14.8448H5.91983C5.91983 14.8448 5.95336 6.49382 5.91983 5.62899H8.93716V6.93524C8.93478 6.94728 8.92895 6.95832 8.9204 6.96695H8.93716V6.93524C9.21441 6.45161 9.61527 6.05436 10.0967 5.78616C10.5781 5.51797 11.1218 5.38896 11.6695 5.41299C13.6559 5.41728 15.1478 6.73382 15.1478 9.56575ZM2.55886 1.15138C2.78179 1.14188 3.00431 1.17821 3.21326 1.25822C3.42221 1.33824 3.61334 1.46031 3.77533 1.61722C3.93732 1.77412 4.06688 1.96267 4.15633 2.1717C4.24579 2.38073 4.29333 2.60599 4.29613 2.83414C4.29894 3.06229 4.25695 3.2887 4.17266 3.49996C4.08837 3.71122 3.96348 3.90304 3.8054 4.06406C3.64732 4.22508 3.45925 4.35203 3.25234 4.43739C3.04542 4.52275 2.82386 4.56479 2.60077 4.56101H2.58401C2.36082 4.56977 2.13818 4.53259 1.9293 4.45168C1.72043 4.37078 1.52957 4.2478 1.36805 4.09003C1.20654 3.93227 1.07765 3.74293 0.989041 3.53327C0.900432 3.3236 0.853905 3.09786 0.85222 2.86946C0.850536 2.64105 0.893728 2.41463 0.979235 2.20361C1.06474 1.9926 1.19082 1.8013 1.34999 1.64106C1.50917 1.48083 1.69819 1.35491 1.90585 1.2708C2.1135 1.18668 2.33557 1.14607 2.55886 1.15138ZM4.2603 14.849H0.882571V5.42071H4.2603V14.849Z" fill="white"/>
</svg>
