<svg width="20" height="20" viewBox="0 0 20 20" fill="none" xmlns="http://www.w3.org/2000/svg">
<path fill-rule="evenodd" clip-rule="evenodd" d="M20 12.1716V19.5H15.767V12.659C15.767 10.9389 15.1572 9.77042 13.6328 9.77042C13.1575 9.77149 12.694 9.92129 12.3058 10.1994C11.9175 10.4774 11.6234 10.8702 11.4635 11.3241C11.348 11.6566 11.2962 12.0084 11.3111 12.3606V19.4929H7.08979C7.08979 19.4929 7.13669 7.91128 7.08979 6.71187H11.3111V8.52346C11.3078 8.54016 11.2996 8.55548 11.2877 8.56744H11.3111V8.52346C11.699 7.85273 12.2598 7.3018 12.9333 6.92985C13.6068 6.5579 14.3675 6.37898 15.1338 6.41231C17.9128 6.41826 20 8.24412 20 12.1716ZM2.38771 0.502054C2.69958 0.48887 3.0109 0.539255 3.30323 0.650225C3.59555 0.761196 3.86295 0.930496 4.08957 1.1481C4.3162 1.36571 4.49746 1.6272 4.62261 1.91709C4.74776 2.20698 4.81427 2.51939 4.81819 2.8358C4.82212 3.15222 4.76338 3.46621 4.64545 3.7592C4.52752 4.05219 4.35281 4.31822 4.13165 4.54153C3.91049 4.76484 3.64738 4.9409 3.35789 5.05929C3.06841 5.17767 2.75844 5.23597 2.44634 5.23074H2.42288C2.11063 5.24288 1.79916 5.19132 1.50694 5.07911C1.21471 4.96691 0.947698 4.79635 0.721731 4.57755C0.495764 4.35875 0.315449 4.09618 0.191482 3.80539C0.0675153 3.51461 0.00242286 3.20155 6.63593e-05 2.88478C-0.00229014 2.56802 0.0581374 2.254 0.177764 1.96135C0.29739 1.66871 0.473779 1.4034 0.696465 1.18117C0.919151 0.958946 1.1836 0.784323 1.47412 0.667665C1.76464 0.551006 2.07531 0.494689 2.38771 0.502054ZM4.76806 19.4988H0.0425277V6.42301H4.76806V19.4988Z" fill="#4E6784"/>
</svg>
