<svg width="151" height="32" viewBox="0 0 151 32" fill="none" xmlns="http://www.w3.org/2000/svg">
<g clip-path="url(#clip0_4651_31096)">
<path d="M67.6899 25.3349L60.9241 25.3814L59.3741 22.3744L60.9241 19.7704L67.7674 19.7239C67.8626 19.7251 67.9565 19.7023 68.0405 19.6576C68.1245 19.6129 68.1958 19.5477 68.2479 19.4681C68.3013 19.3894 68.3348 19.2989 68.3456 19.2045C68.3564 19.11 68.3442 19.0143 68.3099 18.9256C67.589 17.1062 66.3233 15.5541 64.6863 14.4817C63.0492 13.4093 61.1208 12.869 59.1649 12.9348V14.0973C60.7317 14.0464 62.2812 14.4382 63.6356 15.2278C64.9899 16.0174 66.0943 17.1728 66.8219 18.5613L60.5521 18.6078C60.4506 18.6082 60.3508 18.6347 60.2625 18.685C60.1743 18.7352 60.1005 18.8074 60.0484 18.8946L58.2039 22.0644C58.1564 22.1497 58.1314 22.2457 58.1314 22.3434C58.1314 22.441 58.1564 22.5371 58.2039 22.6224L60.0484 26.2339C60.0978 26.3291 60.1723 26.4091 60.2638 26.4651C60.3553 26.5211 60.4603 26.551 60.5676 26.5517L66.7677 26.5129C66.2021 27.5352 65.4292 28.4279 64.4984 29.134C63.5677 29.8401 62.4997 30.3439 61.3628 30.6132C60.226 30.8824 59.0455 30.9112 57.8969 30.6976C56.7483 30.4839 55.6571 30.0327 54.6931 29.3727C53.2211 28.3593 52.1128 26.9006 51.5311 25.2109C51.4899 25.0978 51.4151 25.0001 51.3167 24.9308C51.2184 24.8615 51.1011 24.8241 50.9808 24.8234H3.50394C2.8873 24.8234 2.29592 24.5784 1.8599 24.1424C1.42387 23.7064 1.17892 23.115 1.17892 22.4984C1.17892 21.8817 1.42387 21.2904 1.8599 20.8543C2.29592 20.4183 2.8873 20.1734 3.50394 20.1734H50.9653C51.0873 20.1715 51.206 20.1328 51.3056 20.0622C51.4052 19.9917 51.4811 19.8926 51.5233 19.7781C51.9005 18.6483 52.5194 17.6142 53.3368 16.7478V15.1513C52.0916 16.1823 51.1334 17.5169 50.5546 19.0264H3.50394C2.63572 19.1083 1.82929 19.5111 1.24233 20.1561C0.655364 20.8011 0.330078 21.6418 0.330078 22.5139C0.330078 23.386 0.655364 24.2267 1.24233 24.8716C1.82929 25.5166 2.63572 25.9195 3.50394 26.0014H50.5778C51.2786 27.7636 52.4887 29.277 54.0535 30.3483C55.6184 31.4196 57.467 32.0002 59.3634 32.016C61.2597 32.0318 63.1178 31.4821 64.7003 30.437C66.2828 29.3919 67.5179 27.8989 68.2479 26.1487C68.2788 26.0614 68.2884 25.9681 68.2759 25.8764C68.2634 25.7847 68.2292 25.6974 68.1761 25.6216C68.1231 25.5458 68.0527 25.4837 67.9708 25.4406C67.8889 25.3975 67.798 25.3745 67.7054 25.3737L67.6899 25.3349Z" fill="#193A5F"/>
<path d="M10.8348 10.4161V13.0589C10.8709 13.5905 10.7834 14.1234 10.579 14.6155C10.3746 15.1077 10.0589 15.5457 9.65679 15.8954C8.91518 16.5203 8.03175 16.9541 7.08377 17.1587C6.80534 17.2209 6.52316 17.2649 6.23901 17.2904C5.98157 17.3175 5.72285 17.3304 5.464 17.3292C3.61949 17.3292 2.26323 16.9184 1.37972 16.0969C0.496217 15.2754 0.0622103 13.9114 0.0622103 12.0204V4.68881C0.0303846 3.47031 0.456205 2.2841 1.25572 1.36403C2.05656 0.459857 3.45932 0.00518519 5.464 1.84798e-05C6.85514 -0.0646388 8.22534 0.357385 9.33903 1.19353C9.85071 1.64949 10.2499 2.2177 10.5054 2.85366C10.7608 3.48963 10.8656 4.17609 10.8115 4.85931V6.29306H6.63426V4.16955C6.64099 4.0213 6.61213 3.87358 6.55011 3.73876C6.48809 3.60393 6.39471 3.48591 6.27776 3.39454C6.05698 3.21102 5.78783 3.09528 5.50276 3.06129H5.2625C4.95066 3.08927 4.65534 3.2139 4.41775 3.41779C4.29006 3.53305 4.19075 3.67627 4.12757 3.83625C4.06438 3.99623 4.03903 4.16866 4.05349 4.34006V13.0589C4.04507 13.2297 4.0732 13.4003 4.13602 13.5593C4.19883 13.7184 4.29489 13.8622 4.41775 13.9811C4.643 14.2121 4.94172 14.3574 5.2625 14.3919H5.47951C5.49179 14.397 5.50495 14.3996 5.51825 14.3996C5.53155 14.3996 5.54473 14.397 5.55701 14.3919C5.90222 14.3496 6.21962 14.1812 6.44826 13.9191C6.72682 13.5894 6.86583 13.164 6.83577 12.7334V10.4083L10.8348 10.4161Z" fill="#193A5F"/>
<path d="M13.4766 0.565662H19.2271C20.4065 0.507918 21.5714 0.846192 22.5364 1.52667C22.986 1.91876 23.343 2.40579 23.5816 2.95261C23.8202 3.49943 23.9343 4.09239 23.9159 4.6887C23.9474 5.58637 23.7834 6.48015 23.4354 7.30821C23.1021 8.01312 22.5155 8.56656 21.7924 8.85822C22.3292 8.98852 22.8231 9.25551 23.2261 9.63323C23.3979 9.80426 23.5326 10.0088 23.622 10.2341C23.7113 10.4594 23.7533 10.7007 23.7454 10.943L23.9159 14.942C23.8767 15.3656 23.9544 15.7918 24.1406 16.1743C24.1857 16.2639 24.2527 16.3407 24.3353 16.3976C24.4179 16.4545 24.5136 16.4896 24.6134 16.4998V17.019H21.1026C20.7559 17.0675 20.4038 16.9815 20.1184 16.7788C19.9227 16.4303 19.8439 16.0283 19.8936 15.6318V12.1985C19.9248 11.7714 19.813 11.3461 19.5759 10.9895C19.4129 10.8408 19.22 10.7286 19.0102 10.6605C18.8003 10.5923 18.5784 10.5697 18.3591 10.5942H17.4523V17.019H13.4766V0.565662ZM18.3591 7.67247C18.5567 7.66805 18.7515 7.62472 18.9324 7.54493C19.1133 7.46513 19.2766 7.35046 19.4131 7.20747C19.5931 6.99458 19.7284 6.74762 19.811 6.48133C19.8935 6.21503 19.9216 5.93484 19.8936 5.65746V5.19245C19.7309 4.23919 19.4364 3.64244 19.0179 3.52619C18.5184 3.35991 17.9941 3.28124 17.4678 3.29369V7.65697L18.3591 7.67247Z" fill="#193A5F"/>
<path d="M29.7137 0.565774H34.232L37.9055 17.0114H33.8832L33.3639 13.7486H30.4034L29.8842 17.0114H25.9316L29.7137 0.565774ZM32.8137 10.7649L31.8062 3.4798L30.7134 10.7649H32.8137Z" fill="#193A5F"/>
<path d="M40.1367 0.565774H49.2973V3.6658H44.0893V6.65732H48.7393V9.91234H44.0893V17.0269H40.1367V0.565774Z" fill="#193A5F"/>
<path d="M54.2426 3.8208H51.1426V0.565774H61.1789V3.8208H58.2649V16.9959H54.2426V3.8208Z" fill="#193A5F"/>
<path d="M74.0122 10.4161V13.0589C74.0493 13.5899 73.963 14.1223 73.76 14.6144C73.5569 15.1065 73.2427 15.545 72.842 15.8954C72.0966 16.5191 71.211 16.9526 70.2612 17.1586C69.9855 17.2214 69.7059 17.2654 69.4242 17.2904C69.1668 17.3174 68.9081 17.3304 68.6492 17.3291C66.8047 17.3291 65.4433 16.9184 64.5649 16.0969C63.6814 15.2754 63.2397 13.9114 63.2397 12.0203V4.68879C63.2107 3.46939 63.6393 2.28332 64.4409 1.36402C65.2366 0.459843 66.6394 0.00517133 68.6492 4.62262e-06C70.0531 -0.0711648 71.4377 0.351061 72.563 1.19351C73.0718 1.65134 73.4686 2.22006 73.7226 2.85569C73.9766 3.49133 74.081 4.17687 74.0277 4.8593V6.29305H69.835V4.16954C69.8398 4.02155 69.8101 3.87445 69.7482 3.73993C69.6864 3.6054 69.594 3.48715 69.4785 3.39453C69.2559 3.21393 68.9876 3.09857 68.7035 3.06128H68.4555C68.1463 3.09082 67.8539 3.21536 67.6184 3.41778C67.4898 3.53266 67.3894 3.6756 67.3249 3.83553C67.2604 3.99545 67.2335 4.16808 67.2464 4.34004V13.0589C67.2395 13.2302 67.2691 13.401 67.3332 13.56C67.3974 13.719 67.4946 13.8625 67.6184 13.9811C67.8417 14.2105 68.1374 14.3556 68.4555 14.3919H68.6802C68.7026 14.4009 68.7276 14.4009 68.7499 14.3919C69.0956 14.351 69.4135 14.1824 69.6412 13.9191C69.9226 13.5905 70.0644 13.165 70.0365 12.7333V10.4083L74.0122 10.4161Z" fill="#F47C20"/>
<path d="M76.655 4.6888C76.655 3.04578 77.182 1.87552 78.2051 1.19352C79.3539 0.485784 80.6849 0.130133 82.0336 0.170509H82.6381L83.2426 0.224759C84.2904 0.36895 85.2819 0.785866 86.1179 1.43377C86.5771 1.82944 86.9349 2.32929 87.1614 2.89152C87.3879 3.45376 87.4765 4.06205 87.4199 4.66555V11.9971C87.4956 13.4075 87.0299 14.7936 86.1179 15.8721C85.2576 16.8331 83.8393 17.3059 81.8631 17.3059C79.8868 17.3059 78.5383 16.7711 77.7633 15.7094C77.0165 14.6258 76.6264 13.3362 76.6473 12.0203L76.655 4.6888ZM80.6308 12.8961C80.6185 13.0921 80.6512 13.2882 80.7265 13.4696C80.8017 13.6509 80.9174 13.8127 81.0648 13.9424C81.3287 14.1732 81.6676 14.2999 82.0181 14.2989H82.0878C82.4251 14.2779 82.7462 14.1472 83.0023 13.9269C83.1471 13.7991 83.2602 13.6396 83.3328 13.4607C83.4054 13.2819 83.4356 13.0886 83.4208 12.8961V4.52604C83.435 4.33247 83.4046 4.13823 83.3321 3.95822C83.2596 3.7782 83.1467 3.61719 83.0023 3.48753C82.7462 3.26717 82.4251 3.13654 82.0878 3.11553H82.0181C81.6692 3.1158 81.3315 3.23932 81.0648 3.46428C80.9143 3.59486 80.7966 3.75899 80.7212 3.94342C80.6458 4.12786 80.6149 4.32743 80.6308 4.52604V12.8961Z" fill="#F47C20"/>
<path d="M89.916 0.565774H93.8918L97.0306 10.0674L96.5113 0.565774H100.386V17.0114H96.3641L93.264 7.85084L93.7833 17.0114H89.978L89.916 0.565774Z" fill="#F47C20"/>
<path d="M103.176 0.565774H107.152L110.252 10.0674L109.74 0.565774H113.615V17.0114H109.593L106.493 7.85084L107.004 17.0114H103.207L103.176 0.565774Z" fill="#F47C20"/>
<path d="M116.414 0.565774H125.567V3.6658H120.39V6.82782H125.257V10.2611H120.39V13.7641H125.598V17.0269H116.414V0.565774Z" fill="#F47C20"/>
<path d="M138.756 10.4161V13.0589C138.792 13.5905 138.705 14.1234 138.501 14.6155C138.296 15.1076 137.98 15.5457 137.578 15.8954C136.833 16.5191 135.947 16.9526 134.998 17.1586C134.722 17.2214 134.442 17.2654 134.161 17.2904C133.903 17.3174 133.644 17.3304 133.386 17.3291C131.541 17.3291 130.185 16.9184 129.301 16.0969C128.418 15.2754 127.976 13.9114 127.976 12.0203V4.6888C127.947 3.4694 128.376 2.28333 129.177 1.36402C129.978 0.459849 131.381 0.00517739 133.386 1.06832e-05C134.79 -0.0724795 136.175 0.349881 137.299 1.19352C137.81 1.6506 138.208 2.21898 138.463 2.85466C138.718 3.49034 138.824 4.17625 138.772 4.8593V6.29306H134.571V4.16955C134.578 4.02129 134.549 3.87358 134.487 3.73875C134.425 3.60392 134.332 3.4859 134.215 3.39454C133.994 3.21101 133.725 3.09528 133.44 3.06128H133.192C132.883 3.09083 132.59 3.21536 132.355 3.41778C132.226 3.53266 132.126 3.6756 132.061 3.83553C131.997 3.99546 131.97 4.16809 131.983 4.34005V13.0589C131.976 13.2302 132.005 13.401 132.07 13.56C132.134 13.719 132.231 13.8626 132.355 13.9811C132.578 14.2105 132.874 14.3556 133.192 14.3919H133.417C133.442 14.4007 133.469 14.4007 133.494 14.3919C133.837 14.3491 134.152 14.1807 134.378 13.9191C134.659 13.5905 134.801 13.165 134.773 12.7334V10.4083L138.756 10.4161Z" fill="#F47C20"/>
<path d="M143.942 3.8208H140.842V0.565774H150.863V3.8208H147.949V16.9959H143.926L143.942 3.8208Z" fill="#F47C20"/>
<path d="M4.06073 20.9872H50.8401V24.1414H4.06073C3.64964 24.1414 3.25539 23.9781 2.9647 23.6875C2.67402 23.3968 2.51072 23.0025 2.51072 22.5914C2.50343 22.3834 2.53813 22.176 2.61276 21.9816C2.68739 21.7872 2.8004 21.6099 2.94507 21.4602C3.08973 21.3104 3.26308 21.1914 3.45476 21.1101C3.64644 21.0289 3.85253 20.987 4.06073 20.9872Z" fill="#F47C20"/>
</g>
<defs>
<clipPath id="clip0_4651_31096">
<rect width="150.878" height="32" fill="white"/>
</clipPath>
</defs>
</svg>
